<svg width="300" height="300" viewBox="0 0 300 300" fill="none" xmlns="http://www.w3.org/2000/svg">
<rect width="300" height="300" fill="#135C1F"/>
<path d="M70.1074 130.469C66.377 130.469 63.3691 129.307 61.084 126.982C58.8184 124.658 57.6855 121.406 57.6855 117.227V93.4375C57.6855 88.4375 58.6719 84.6094 60.6445 81.9531C62.6367 79.2969 65.8691 77.9688 70.3418 77.9688C72.7832 77.9688 74.9512 78.418 76.8457 79.3164C78.7598 80.2148 80.2637 81.5625 81.3574 83.3594C82.4512 85.1367 82.998 87.3828 82.998 90.0977V99.0039H72.7441V91.3867C72.7441 89.8438 72.5488 88.8086 72.1582 88.2812C71.7676 87.7344 71.1621 87.4609 70.3418 87.4609C69.3848 87.4609 68.7402 87.8125 68.4082 88.5156C68.0762 89.1992 67.9102 90.1172 67.9102 91.2695V117.08C67.9102 118.506 68.1152 119.512 68.5254 120.098C68.9551 120.684 69.5605 120.977 70.3418 120.977C71.2207 120.977 71.8359 120.615 72.1875 119.893C72.5586 119.17 72.7441 118.232 72.7441 117.08V107.793H83.1152V117.549C83.1152 122.08 81.9727 125.371 79.6875 127.422C77.4023 129.453 74.209 130.469 70.1074 130.469ZM85.166 130L90.1465 78.4375H107.637L112.529 130H102.773L102.041 121.68H95.8301L95.1855 130H85.166ZM96.5625 113.447H101.25L98.9941 87.2266H98.5254L96.5625 113.447ZM127.939 130.469C123.232 130.469 119.834 129.297 117.744 126.953C115.674 124.609 114.639 120.879 114.639 115.762V110.723H124.834V117.168C124.834 118.359 125.01 119.297 125.361 119.98C125.732 120.645 126.367 120.977 127.266 120.977C128.203 120.977 128.848 120.703 129.199 120.156C129.57 119.609 129.756 118.711 129.756 117.461C129.756 115.879 129.6 114.561 129.287 113.506C128.975 112.432 128.428 111.416 127.646 110.459C126.885 109.482 125.82 108.35 124.453 107.061L119.824 102.666C116.367 99.4043 114.639 95.6738 114.639 91.4746C114.639 87.0801 115.654 83.7305 117.686 81.4258C119.736 79.1211 122.695 77.9688 126.562 77.9688C131.289 77.9688 134.639 79.2285 136.611 81.748C138.604 84.2676 139.6 88.0957 139.6 93.2324H129.111V89.6875C129.111 88.9844 128.906 88.4375 128.496 88.0469C128.105 87.6562 127.568 87.4609 126.885 87.4609C126.064 87.4609 125.459 87.6953 125.068 88.1641C124.697 88.6133 124.512 89.1992 124.512 89.9219C124.512 90.6445 124.707 91.4258 125.098 92.2656C125.488 93.1055 126.26 94.0723 127.412 95.166L133.359 100.879C134.551 102.012 135.645 103.213 136.641 104.482C137.637 105.732 138.438 107.197 139.043 108.877C139.648 110.537 139.951 112.568 139.951 114.971C139.951 119.814 139.053 123.613 137.256 126.367C135.479 129.102 132.373 130.469 127.939 130.469ZM143.408 130V78.4375H153.662V96.8652H158.525V78.4375H168.779V130H158.525V106.621H153.662V130H143.408ZM199.717 130.469C195.596 130.469 192.441 129.229 190.254 126.748C188.086 124.248 187.002 120.645 187.002 115.938V91.4453C187.002 87.0312 188.076 83.6816 190.225 81.3965C192.393 79.1113 195.557 77.9688 199.717 77.9688C203.877 77.9688 207.031 79.1113 209.18 81.3965C211.348 83.6816 212.432 87.0312 212.432 91.4453V115.938C212.432 120.645 211.338 124.248 209.15 126.748C206.982 129.229 203.838 130.469 199.717 130.469ZM199.805 120.977C201.367 120.977 202.148 119.463 202.148 116.436V91.2695C202.148 88.7305 201.387 87.4609 199.863 87.4609C198.145 87.4609 197.285 88.7598 197.285 91.3574V116.494C197.285 118.096 197.48 119.248 197.871 119.951C198.262 120.635 198.906 120.977 199.805 120.977ZM216.592 130V78.4375H227.197L231.943 103.135V78.4375H241.904V130H231.826L226.67 104.219V130H216.592ZM52.2656 220V168.438H66.4453C70.1562 168.438 72.9492 169.473 74.8242 171.543C76.6992 173.594 77.6367 176.602 77.6367 180.566V204.707C77.6367 209.59 76.7773 213.359 75.0586 216.016C73.3594 218.672 70.3711 220 66.0938 220H52.2656ZM62.6367 210.889H64.4238C66.3184 210.889 67.2656 209.971 67.2656 208.135V181.533C67.2656 179.814 67.0312 178.711 66.5625 178.223C66.1133 177.715 65.1855 177.461 63.7793 177.461H62.6367V210.889ZM81.8555 220V168.438H102.48V178.398H92.3438V188.447H102.07V198.145H92.3438V209.951H103.154V220H81.8555ZM106.582 220V168.438H116.895V211.211H127.5V220H106.582ZM129.961 220V168.438H139.922V220H129.961ZM148.77 220L142.412 168.408H152.227L156.006 203.506L159.375 168.408H169.189L162.832 220H148.77ZM172.207 220V168.438H192.832V178.398H182.695V188.447H192.422V198.145H182.695V209.951H193.506V220H172.207ZM196.934 220V168.438H212.754C215.391 168.438 217.383 169.043 218.73 170.254C220.078 171.445 220.977 173.125 221.426 175.293C221.895 177.441 222.129 179.971 222.129 182.881C222.129 185.693 221.768 187.939 221.045 189.619C220.342 191.299 219.004 192.461 217.031 193.105C218.652 193.438 219.785 194.248 220.43 195.537C221.094 196.807 221.426 198.457 221.426 200.488V220H211.26V199.814C211.26 198.311 210.947 197.383 210.322 197.031C209.717 196.66 208.73 196.475 207.363 196.475V220H196.934ZM207.422 187.539H209.912C211.338 187.539 212.051 185.986 212.051 182.881C212.051 180.869 211.895 179.551 211.582 178.926C211.27 178.301 210.684 177.988 209.824 177.988H207.422V187.539ZM231.768 220V203.037L223.535 168.438H233.76L236.631 185.898L239.502 168.438H249.697L241.494 203.037V220H231.768Z" fill="white"/>
</svg>
