<svg width="28" height="18" viewBox="0 0 28 18" fill="none" xmlns="http://www.w3.org/2000/svg">
<path d="M18.75 7.74431C20.825 7.74431 22.4875 6.11376 22.4875 4.09383C22.4875 2.0739 20.825 0.443359 18.75 0.443359C16.675 0.443359 15 2.0739 15 4.09383C15 6.11376 16.675 7.74431 18.75 7.74431ZM8.75 7.74431C10.825 7.74431 12.4875 6.11376 12.4875 4.09383C12.4875 2.0739 10.825 0.443359 8.75 0.443359C6.675 0.443359 5 2.0739 5 4.09383C5 6.11376 6.675 7.74431 8.75 7.74431ZM8.75 10.178C5.8375 10.178 0 11.6016 0 14.4368V16.2621C0 16.9313 0.5625 17.4789 1.25 17.4789H16.25C16.9375 17.4789 17.5 16.9313 17.5 16.2621V14.4368C17.5 11.6016 11.6625 10.178 8.75 10.178ZM18.75 10.178C18.3875 10.178 17.975 10.2023 17.5375 10.2388C17.5625 10.251 17.575 10.2753 17.5875 10.2875C19.0125 11.2974 20 12.6481 20 14.4368V16.2621C20 16.688 19.9125 17.1017 19.775 17.4789H26.25C26.9375 17.4789 27.5 16.9313 27.5 16.2621V14.4368C27.5 11.6016 21.6625 10.178 18.75 10.178Z" fill="black"/>
</svg>
